<?xml version="1.0" encoding="utf-8"?>
<!-- Generator: Adobe Illustrator 24.2.1, SVG Export Plug-In . SVG Version: 6.00 Build 0)  -->
<svg version="1.1" xmlns="http://www.w3.org/2000/svg" xmlns:xlink="http://www.w3.org/1999/xlink" x="0px" y="0px"
	 viewBox="0 0 5953.7 1301.2" style="enable-background:new 0 0 5953.7 1301.2;" xml:space="preserve">
<style type="text/css">
	.st0{fill:none;stroke:#ffffff;stroke-width:2;stroke-linecap:round;stroke-linejoin:round;}
</style>
<g id="Layer_1">
	<path class="st0" d="M5893.1,550.6c-26.6,0-48.2,21.6-48.2,48.2c0,26.6,21.6,48.2,48.2,48.2s48.2-21.6,48.2-48.2
		C5941.3,572.3,5919.7,550.6,5893.1,550.6z"/>
	<polygon class="st0" points="941,950.8 835.2,950.8 446.2,510.3 446.2,791 530.5,695.5 600.9,775.3 446.2,950.5 446.2,950.8 
		340.4,950.8 340.4,350.4 446.2,350.4 835.2,791.3 835.2,510 750.8,605.6 680.3,525.8 835,350.4 835.2,350.6 835.2,350.4 941,350.4 
			"/>
	<polygon class="st0" points="2679.5,356.4 2474.6,784.6 2269.8,356.4 2174.7,356.4 2174.7,957.2 2290.5,957.2 2291.7,638.3 
		2434.7,952.9 2515.4,952.9 2657.5,638.3 2659.6,957.2 2775.4,957.2 2775.4,356.4 	"/>
	<path class="st0" d="M3225.9,891.1c-40.3,48.1-106.4,74.7-170.8,74.7c-124.4,0-218-85.8-218-216.3c0-115.9,79-217.1,202.5-217.1
		c115,0,196.5,97,196.5,212.8c0,11.2-0.9,22.3-2.6,31.8h-288.4c6,58.4,53.2,98.7,112.4,98.7c47.2,0,85-26.6,104.7-48.1L3225.9,891.1
		z"/>
	<path class="st0" d="M3122.1,695.4c-3.4-36.9-36.9-72.9-82.4-72.9c-46.3,0-84.1,35.2-89.3,72.9H3122.1z"/>
	<path class="st0" d="M3304.4,830.2c28.3,25.8,72.1,41.2,114.1,41.2c30,0,53.2-14.6,53.2-35.2c0-62.6-201.7-40.3-201.7-174.2
		c0-79.8,77.2-129.6,159.6-129.6c54.1,0,113.3,20.6,140.7,42.1l-52.4,80.7c-21.5-15.5-49.8-28.3-79.8-28.3
		c-30.9,0-56.6,12-56.6,33.5c0,54.1,201.7,32.6,201.7,176.8c0,79.8-78.1,128.7-165.6,128.7c-57.5,0-118.4-19.7-167.4-55.8
		L3304.4,830.2z"/>
	<path class="st0" d="M3654.1,830.2c28.3,25.8,72.1,41.2,114.1,41.2c30,0,53.2-14.6,53.2-35.2c0-62.6-201.7-40.3-201.7-174.2
		c0-79.8,77.2-129.6,159.6-129.6c54.1,0,113.3,20.6,140.7,42.1l-52.3,80.7c-21.5-15.5-49.8-28.3-79.8-28.3
		c-30.9,0-56.6,12-56.6,33.5c0,54.1,201.7,32.6,201.7,176.8c0,79.8-78.1,128.7-165.6,128.7c-57.5,0-118.4-19.7-167.4-55.8
		L3654.1,830.2z"/>
	<path class="st0" d="M4346.2,891.1c-40.3,48.1-106.4,74.7-170.8,74.7c-124.4,0-218-85.8-218-216.3c0-115.9,79-217.1,202.5-217.1
		c115,0,196.5,97,196.5,212.8c0,11.2-0.9,22.3-2.6,31.8h-288.4c6,58.4,53.2,98.7,112.4,98.7c47.2,0,85-26.6,104.7-48.1L4346.2,891.1
		z"/>
	<path class="st0" d="M4242.4,695.4c-3.4-36.9-36.9-72.9-82.4-72.9c-46.3,0-84.1,35.2-89.3,72.9H4242.4z"/>
	<path class="st0" d="M4411.3,957.2V347.8h111.6V571c32.6-25.7,72.1-38.6,117.6-38.6c113.3,0,204.2,94.4,204.2,217.1
		c0,56.6-20.6,108.1-53.2,145.9c-36.9,42.9-95.3,70.4-157.1,70.4c-42.1,0-81.5-12.9-115.9-42.1v33.5H4411.3z"/>
	<path class="st0" d="M4522.9,811.3c21.5,30.9,58.4,51.5,100.4,51.5c62.6,0,109.8-48.1,109.8-113.3c0-60.1-42.1-114.1-107.3-114.1
		c-42.9,0-79.8,20.6-103,51.5V811.3z"/>
	<path class="st0" d="M5302.9,957.2h-107.3v-33.5c-34.3,29.2-73.8,42.1-115.9,42.1c-61.8,0-120.2-27.5-157.1-70.4
		c-32.6-37.8-53.2-89.3-53.2-145.9c0-122.7,91-217.1,204.3-217.1c47.2,0,89.3,15.5,121.9,42.1V541h107.3V957.2z"/>
	<path class="st0" d="M5191.4,686.8c-23.2-30.9-60.1-51.5-103-51.5c-65.2,0-107.3,54.1-107.3,114.1c0,65.2,47.2,113.3,109.8,113.3
		c42.1,0,79-20.6,100.4-51.5V686.8z"/>
	<path class="st0" d="M5765.5,540.9v416.2h-107.3v-33.5c-32.6,29.2-72.1,42.1-112.4,42.1c-57.5,0-109-26.6-141.6-66.9
		c-26.6-32.6-42.1-75.5-42.1-137.3V540.9h111.6v224.9c0,37.8,7.7,56.6,20.6,71.2c17.2,18.9,41.2,25.7,62.6,25.7
		c47.2,0,81.5-31.8,97-51.5V540.9H5765.5z"/>
	<path class="st0" d="M5906.5,571.1c2.2,0.9,4,2.3,5.5,4.1c1.2,1.5,2.2,3.1,3,4.9c0.7,1.8,1.1,3.8,1.1,6.1c0,2.8-0.7,5.5-2.1,8.2
		c-1.4,2.7-3.7,4.6-7,5.7c2.7,1.1,4.6,2.6,5.7,4.6c1.1,2,1.7,5,1.7,9.2v3.9c0,2.7,0.1,4.5,0.3,5.4c0.3,1.5,1.1,2.6,2.3,3.3v1.5
		h-13.5c-0.4-1.3-0.6-2.3-0.8-3.1c-0.3-1.6-0.5-3.3-0.5-5l-0.1-5.4c0-3.7-0.7-6.2-1.9-7.5c-1.2-1.2-3.6-1.9-7-1.9h-11.9v22.9h-11.9
		v-58.5h28C5901.3,569.7,5904.3,570.2,5906.5,571.1z"/>
	<path class="st0" d="M5881.2,579.8v15.7h13.2c2.6,0,4.6-0.3,5.9-1c2.3-1.1,3.5-3.3,3.5-6.6c0-3.5-1.1-5.9-3.4-7.1
		c-1.3-0.7-3.1-1-5.7-1H5881.2z"/>
	<path class="st0" d="M5893.1,659c-33.2,0-60.2-27-60.2-60.1c0-33.2,27-60.2,60.2-60.2c33.2,0,60.1,27,60.1,60.2
		C5953.3,632,5926.3,659,5893.1,659z"/>
	<path class="st0" d="M1288.6,523.3c-48.5-255.9-254.9-462.3-510.8-510.8C319.8-74.2-74.2,319.8,12.6,777.9
		c48.5,255.9,254.9,462.3,510.8,510.8C981.4,1375.4,1375.4,981.4,1288.6,523.3z"/>
</g>
<g id="Viewport_Boundary">
</g>
</svg>
